<?xml version="1.0" encoding="utf-8"?>
<!-- Generator: Adobe Illustrator 15.1.0, SVG Export Plug-In . SVG Version: 6.00 Build 0)  -->
<!DOCTYPE svg PUBLIC "-//W3C//DTD SVG 1.1//EN" "http://www.w3.org/Graphics/SVG/1.1/DTD/svg11.dtd">
<svg version="1.1" id="Layer_1" xmlns="http://www.w3.org/2000/svg" xmlns:xlink="http://www.w3.org/1999/xlink" x="0px" y="0px"
	 width="595.616px" height="147.471px" viewBox="0 0 595.616 147.471" enable-background="new 0 0 595.616 147.471"
	 xml:space="preserve">
<g>
	<path fill="#28CE85" d="M232.586,38.143c-1.043-0.14-1.557,0.662-1.732,1.55c-0.199,0.999-0.741,1.898-1.469,2.602
		c-1.672,1.616-4.454,2.422-6.653,1.477c2.17-2.825,4.267-5.947,5.64-9.249c1.215-2.919,2.262-8.874-2.303-9.436
		c-4.109-0.506-7.612,3.598-8.924,7.041c-1.475,3.87-1.242,8.683,1.407,12.006c-1.208,1.361-8.213,8.125-9.101,3.139
		c-0.41-2.297,0.212-4.826,0.592-7.087c0.413-2.458,0.937-5.018,0.686-7.521c-0.194-1.94-1.281-4.488-3.605-4.438
		c-0.656,0.014-1.293,0.246-1.842,0.594c-2.859,1.813-4.737,5.473-6.33,8.311c0.421-3.451,0.938-6.493,1.592-9.373
		c3.729-1.594,6.738-4.812,9.158-7.974c2.557-3.34,4.787-7.133,6.004-11.181c0.946-3.15,1.26-7.96-3.067-8.547
		c-2.769-0.376-5.106,1.167-6.779,3.236c-1.967,2.431-3.234,5.408-4.28,8.327c-1.613,4.506-2.703,9.196-3.621,13.887
		c-2.979,1.015-5.894,1.433-8.33,1.206c1.523-3.93,3.122-7.838,4.458-11.838c0.445-1.335,0.87-2.686,1.155-4.066
		c0.217-1.052,0.625-2.694-0.541-3.336c-0.716-0.395-1.643-0.124-2.036,0.591c-0.267,0.484-0.174,1.107-0.259,1.643
		c-0.239,1.51-0.743,2.987-1.231,4.431c-1.356,4.011-2.967,7.933-4.493,11.881c-1.524-0.641-2.736-1.796-3.306-3.365
		c-0.274-0.758-0.245-1.687-1.029-2.134c-0.709-0.405-1.64-0.148-2.044,0.56c-0.723,1.265,0.551,3.536,1.273,4.58
		c0.996,1.437,2.43,2.503,4.04,3.164c-0.825,2.242-1.542,4.53-2.153,6.839c-0.695,2.635-1.317,5.515-0.813,8.24
		c0.499,2.697,2.413,4.541,5.253,3.856c2.801-0.676,5.291-2.675,7.426-4.52c-0.079,0.948-0.41,2.165,0.516,2.813
		c0.75,0.525,1.822,0.24,2.215-0.586c1.86-3.956,3.84-7.982,6.428-11.524c0.66-0.902,1.532-2.247,2.633-2.69
		c0.828,0.786,0.695,2.398,0.637,3.42c-0.096,1.685-0.391,3.354-0.67,5.016c-0.468,2.786-1.146,5.861-0.479,8.668
		c0.672,2.819,3.297,4.081,6.064,3.505c3.278-0.682,5.975-3.324,8.112-5.736c3.065,1.796,7.072,1.13,9.831-0.943
		c1.201-0.902,2.182-2.101,2.756-3.494C233.838,40.55,234.41,38.391,232.586,38.143C231.766,38.033,233.407,38.254,232.586,38.143z
		 M211.438,3.021c4.355-0.379,0.212,7.865-0.633,9.427c-2.306,4.267-5.434,8.627-9.46,11.428
		C205.219,5.583,209.649,3.178,211.438,3.021C211.572,3.009,209.649,3.178,211.438,3.021z M186.495,44.917
		c-0.973-0.111-1.026-2.227-1.029-2.918c-0.008-1.51,0.28-3.018,0.625-4.481c0.634-2.686,1.478-5.339,2.438-7.925
		c2.92,0.437,5.875,0.061,8.706-0.721c-0.613,3.005-1.096,6.215-1.487,9.873C192.611,41.942,188.291,45.134,186.495,44.917
		C186.299,44.895,188.291,45.134,186.495,44.917z M222.959,29.089c0.665-0.496,1.477-0.926,2.313-1.021
		c0.84-0.096,1.07,0.404,1.161,1.169c0.187,1.551-0.377,3.14-1.001,4.534c-1.266,2.827-3.052,5.511-4.92,7.97
		C218.015,37.824,219.273,31.833,222.959,29.089C223.804,28.46,220.781,30.71,222.959,29.089z"/>
	<path fill="#FFFFFF" d="M255.928,45.099c12.773,1.474,15.265-20.119,2.492-21.594C245.646,22.033,243.154,43.622,255.928,45.099
		C261.332,45.723,250.522,44.474,255.928,45.099z M304.836,113.401l-4.227-6.038c-4.26,6.121-21.092,18.749-21.424,3.365
		c-0.143-6.571,2.837-13.655,4.568-19.874c5.642-20.273,11.398-40.515,17.203-60.741c0.554-1.927,1.096-3.857,1.671-5.778
		c2.202-7.347-9.739-4.072-12.883-1.395c-5.289,4.504-6.796,19.022-8.646,25.268c-3.528,11.922-7.046,23.85-10.406,35.82
		c-2.469,8.789-6.352,18.571-6.506,27.813c-3.766,3.351-14.104,10.72-17.838,3.422c-1.946-3.803-0.745-8.437,0.231-12.343
		c2.621-10.485,5.5-20.911,8.376-31.328c0.48-1.739,3.363-8.641,1.044-9.688c-2.64-1.192-7.662,1.012-10.488,1.229
		c-3.474,0.267-4.213,4.856-4.958,7.473c-3.688,12.965-9.301,26.638-10.14,40.187c-3.249,3.547-9.961,10.066-15.624,7.476
		c-7.084-3.241,0.521-20.992,1.959-26.044c2.435-8.563,5.613-17.113,7.479-25.82c1.358-6.344-6.874-3.485-10.807-2.171
		c-3.48,1.163-4.102,7.242-4.868,10.24c-3.679-14.6-19.191-15.99-29.894-7.957c-13.24,9.938-19.44,30.617-16.068,46.489
		c-4.844,3.967-15.998,9.319-17.331-0.675c-0.479-3.592,0.496-7.021,1.415-10.439c2.937-10.934,6.044-21.821,9.123-32.715
		c3.289-11.641,6.597-23.276,9.924-34.906c0.896-3.13,1.786-6.261,2.699-9.385c2.3-7.865-9.34-5.091-12.924-1.764
		c-3.68,2.574-6.632,9.464-9.208,13.339c-4.513,6.788-9.092,13.532-13.673,20.273c-6.729,9.903-13.481,19.79-20.252,29.664
		c-0.663-10.176-1.093-20.442-0.637-30.636c0.335-7.477,1.393-14.932,1.992-22.394c0.369-4.599,3.19-12.645-3.164-13.538
		c-0.102-0.006-0.203,0.005-0.305,0.001c0.027-0.014,0.041-0.021,0.041-0.021c-8.227,0.02-16.452,0.033-24.678,0.021
		c-9.344-0.013-23.367-2.537-28.509,7.509c-3.647,5.833,1.198,11.146,7.333,11.597c1.158-5.4,5.048-10.284,10.904-10.547
		c4.922-0.021,20.354-0.402,20.135-0.424C87.435,46.244,78.324,64.507,68.977,82.15c-11.773,22.224-24.113,49.271-52.15,52.095
		l-0.002,0.002c-9.873,0.413-12.008-4.166-12.008-4.166c-3.447,2.814-6.41,7.568-3.852,11.969
		c3.991,6.863,16.194,5.639,22.695,4.645c15.825-2.416,26.307-14.454,34.923-26.991c7.712-11.22,13.355-23.382,19.231-35.603
		c5.451-11.339,11.667-22.279,16.91-33.731c-0.668,10.936-1.313,21.873-1.927,32.811c-0.282,5.033-5.309,35.654,3.728,34.969
		c5.895-0.451,8.82-7.125,11.815-11.559c4.124-6.109,8.25-12.217,12.376-18.324c8.582-12.705,17.15-25.418,25.761-38.104
		c-5.466,18.481-11.55,37.02-15.568,55.886c-1.784,8.373-0.044,18.625,8.194,23.055c8.617,4.635,20.35-2.041,26.875-7.611
		c8.908,13.929,24.855,9.688,33.162-2.176c2.671,17.654,25.66,11.747,32.492,0.301c5.999,16.759,24.303,10.653,34.586,1.867
		C274.783,139.536,298.472,126.57,304.836,113.401C304.836,113.401,300.459,122.458,304.836,113.401z M201.023,97.06
		c-1.992,7.475-6.031,19.489-14.798,21.622c-7.858,1.912-9.947-10.246-9.729-15.43c0.387-9.204,3.815-25.16,13.747-29.051
		C203.527,68.997,202.934,89.893,201.023,97.06C196.084,115.59,204.443,84.231,201.023,97.06z M582.683,66.291
		c-1.692-3.032-3.825-9.223-8.338-8.593c-5.351,0.75-7.515,5.344-9.446,9.593c-6.008,13.218-14.168,25.612-21.574,38.069
		c0.23-10.13-3.532-20.137-7.906-29.111c-2.354-4.83-5.641-13.988-10.352-17.014c-6.249-4.014-10.924,6.07-12.856,10.091
		c-4.914,10.225-10.968,19.94-16.748,29.692c-10.822,14.271-42.042,27.09-41.794-0.838c8.849,0.91,18.65-0.861,26.361-5.369
		c10.346-6.049,15.631-22.024,5.143-30.8c-10.523-8.806-26.207-2.687-34.208,6.438c-9.448,10.776-14.919,28.539-10.149,42.438
		c-5.042,4.147-17.008,8.87-16.895-2.145c0.104-10.016,3.967-20.473,6.782-29.982c2.089-7.056,3.206-14.249-5.423-16.448
		c-7.449-1.898-17.004-7.891-24.65-7.613c-8.057,0.292-6.924,9.964-8.116,15.477c-1.628,7.536-4.63,14.808-8.286,21.574
		c-6.201,11.475-16.605,26.345-30.82,27.858c-3.451,0.179-8.809-0.624-9.919-4.59c-5.253,2.807-4.136,10.363,0.463,13.06
		c5.941,3.483,13.964,2.188,19.922-0.471c23.903-9.185,33.282-36.539,38.271-59.221c2.03,0.697,14.655,3.808,14.859,5.929
		c0.338,3.512-2.115,8.471-3.063,11.816c-1.477,5.214-2.642,10.533-3.69,15.85c-1.74,8.813-0.873,19.566,7.798,24.576
		c8.667,5.008,20.905-1.438,27.163-7.626c11.455,14.19,32.001,8.808,44.287-1.178c13.441-10.923,21.412-26.19,29.866-40.927
		c5.364,9.748,13.028,24.575,7.732,35.877c-3.327,7.102-18.295,10.727-21.429,1.545c-3.769,2.139-5.004,7.426-3.072,11.209
		c3.043,5.959,11.43,6.076,17.138,5.549c28.453-1.604,39.405-33.482,51.752-55.005c5.364,9.748,13.028,24.574,7.732,35.877
		c-3.327,7.101-18.294,10.728-21.427,1.545c-7.963,4.517-2.998,14.379,4.063,16.153c9.219,2.316,20.949-0.256,27.277-7.603
		C603.094,105.763,591.466,81.997,582.683,66.291C582.133,65.306,586.584,73.267,582.683,66.291z M471.621,69.44
		c6.662-0.106,7.08,6.603,4.566,11.14c-4.181,7.546-13.546,9.75-21.565,9.104C456.771,81.84,462.646,69.582,471.621,69.44
		C476.147,69.368,462.646,69.582,471.621,69.44z M361.552,100.282c28.391-15.564,31.554-65.577-0.534-78.682
		c1.786,0.729,3.572,1.46,5.359,2.188c-2.207-0.898-4.41-1.802-6.616-2.701c0.405,0.166,0.811,0.332,1.216,0.497
		c-14.478-5.897-32.674-4.599-44.792,5.858c-13.091,11.295-13.901,31.101-0.271,42.351c1.034-3.844,2.069-7.687,3.104-11.531
		c0.821-3.053-1.161-5.968-0.698-9.118c0.871-5.923,5.978-11.121,11.188-13.651c9.823-4.77,23.118-2.832,31.016,4.768
		c19.896,19.146,0.883,61.194-27.279,55.177c4.997-17.625,10.856-38.736,13.475-48.358c0.347-4.568-8.973-1.14-11.422-0.952
		c-3.687,0.284-4.404,5.504-5.215,8.328c-2.197,7.656-4.424,15.304-6.67,22.946c-6.233,21.193-9.811,52.04-33.977,60.706
		c3.523,15.995,20.728,6.598,27.195-1.249c4.786-6.217,8.617-13.795,11.118-22.42l0.03,0.017c0.895-3.044,1.951-6.7,3.103-10.721
		C340.932,106.575,352.508,105.241,361.552,100.282C385.856,86.958,352.508,105.241,361.552,100.282z"/>
</g>
</svg>
