<?xml version="1.0" encoding="utf-8"?>
<!-- Generator: Adobe Illustrator 15.1.0, SVG Export Plug-In . SVG Version: 6.00 Build 0)  -->
<!DOCTYPE svg PUBLIC "-//W3C//DTD SVG 1.1//EN" "http://www.w3.org/Graphics/SVG/1.1/DTD/svg11.dtd">
<svg version="1.1" id="Layer_1" xmlns="http://www.w3.org/2000/svg" xmlns:xlink="http://www.w3.org/1999/xlink" x="0px" y="0px"
	 width="998.234px" height="213.84px" viewBox="0 0 998.234 213.84" enable-background="new 0 0 998.234 213.84"
	 xml:space="preserve">
<g>
	<polygon id="paper" fill="#FFFFFF" points="92.621,147.865 185.246,85.341 0,85.341 	"/>
	<polyline id="left" fill="#FFD464" points="92.621,147.865 0,210.387 0,85.341 92.621,147.865 	"/>
	<polyline id="right" fill="#A68FF7" points="92.621,147.865 185.246,210.387 185.246,85.341 92.621,147.865 	"/>
	<polygon id="top" fill="#FF9996" points="92.621,0 185.246,85.341 0,85.341 	"/>
	<polyline id="bot" fill="#7ED8FF" points="92.621,147.865 185.246,210.387 0,210.387 92.621,147.865 	"/>
</g>
<g>
	<path id="mailpress" fill="#322B56" d="M498.457,111.869c-4.045,0-7.482,1.416-10.313,4.247s-4.246,6.337-4.246,10.515
		c0,4.181,1.416,7.684,4.246,10.514c2.83,2.832,6.268,4.247,10.313,4.247c4.176,0,7.715-1.415,10.617-4.247
		c2.896-2.83,4.346-6.333,4.346-10.514c0-4.178-1.449-7.684-4.346-10.515C506.171,113.285,502.632,111.869,498.457,111.869z
		 M485.515,211.414h26.287v-61.929h-26.287V211.414z M988.73,163.289c-6.336-5.39-14.289-9.838-23.859-13.346
		c-4.988-1.75-8.795-3.336-11.424-4.752c-2.629-1.415-3.943-2.998-3.943-4.751c0-2.29,1.111-4.277,3.336-5.966
		c2.225-1.683,5.02-2.527,8.393-2.527c4.313,0,8.457,0.54,12.434,1.619c3.975,1.079,8.525,2.764,13.648,5.054l7.887-17.592
		c-4.584-3.1-10.178-5.592-16.781-7.481c-6.607-1.885-12.203-2.83-16.783-2.83c-11.729,0-21.031,2.664-27.904,7.986
		c-6.875,5.328-10.314,12.637-10.314,21.939c0,7.414,3.102,13.547,9.303,18.4c6.199,4.852,13.951,8.83,23.252,11.931
		c11.457,3.506,17.189,7.886,17.189,13.144c0,2.697-1.688,4.784-5.057,6.266c-3.371,1.486-7.076,2.227-11.119,2.227
		c-6.895,0-15.6-2.15-26.543-7.368c-0.361,7.403-2.627,13.681-6.764,18.755c4.176,2.879,10.102,5.652,16.119,7.215
		c6.738,1.75,12.602,2.629,17.59,2.629c13.211,0,23.32-2.66,30.332-7.987c7.008-5.324,10.514-12.906,10.514-22.748
		C998.234,175.289,995.066,168.682,988.73,163.289z M912.865,163.289c-6.338-5.39-14.291-9.838-23.859-13.346
		c-4.99-1.75-8.797-3.336-11.426-4.752c-2.629-1.415-3.941-2.998-3.941-4.751c0-2.29,1.111-4.277,3.336-5.966
		c2.225-1.683,5.02-2.527,8.391-2.527c4.313,0,8.459,0.54,12.436,1.619c3.816,1.037,12.422,3.893,17.498,6.719
		c0.063-7.219,2.004-13.445,5.793-18.599c-4.584-3.099-11.936-6.25-18.539-8.14c-6.605-1.885-12.201-2.83-16.783-2.83
		c-11.729,0-21.029,2.664-27.902,7.986c-6.875,5.328-10.314,12.637-10.314,21.939c0,7.414,3.1,13.547,9.303,18.4
		c6.199,4.852,13.951,8.83,23.252,11.931c11.457,3.506,17.188,7.886,17.188,13.144c0,2.697-1.686,4.784-5.055,6.266
		c-3.371,1.486-7.076,2.227-11.121,2.227c-7.146,0-15.705-2.227-25.68-6.674l-7.887,17.793c4.178,3.236,9.637,5.732,16.379,7.482
		c6.738,1.75,12.604,2.629,17.592,2.629c13.211,0,23.32-2.66,30.33-7.987c7.008-5.324,10.516-12.906,10.516-22.748
		C922.369,175.289,919.199,168.682,912.865,163.289z M453.017,115.367c-6.471-3.1-13.617-4.65-21.432-4.65
		c-4.584,0-10.719,0.909-18.4,2.729c-7.686,1.819-13.281,3.876-16.783,6.167l7.076,21.838c3.771-1.75,8.357-3.267,13.75-4.55
		c5.391-1.279,10.313-1.921,14.76-1.921c4.852,0,8.66,1.384,11.424,4.145c2.762,2.766,4.211,5.376,4.348,10.36H428.55
		c-11.322,0-20.355,2.643-27.093,8.102c-6.742,5.46-10.111,14.532-10.111,24.507c0,9.705,2.965,17.424,8.898,23.152
		c5.93,5.73,14.76,8.594,26.488,8.594c7.342,0,14.418-2.853,21.23-8.559v6.133h26.285v-64.503c0-6.876-1.92-13.074-5.764-18.603
		C464.644,122.781,459.486,118.471,453.017,115.367z M447.962,184.485c-6.607,5.686-13.818,8.527-21.635,8.527
		c-3.641,0-6.643-0.946-8.998-2.842c-2.359-1.894-3.539-4.145-3.539-6.751c0-3.313,1.314-6.797,3.943-9.168
		c2.629-2.367,6.098-4.101,10.412-4.101h19.816V184.485z M553.062,184.172c-2.201-2.853-3.424-6.494-3.68-10.923V65.448h-26.084
		V176.1c0,11.17,3.43,19.846,10.291,26.031c4.236,3.82,9.504,6.453,15.793,7.916c3.896,0.904,8.178,1.367,12.861,1.367
		c0.404,0,0.832-0.039,1.248-0.058v-22.351C558.998,188.969,555.519,187.36,553.062,184.172z M821.267,117.592
		c-6.742-4.582-16.387-6.875-26.227-6.875c-10.109,0-18.873,2.123-26.285,6.369c-7.416,4.246-13.113,10.28-17.088,18.097
		c-3.977,7.82-5.963,16.919-5.963,27.298c0,16.043,4.818,28.611,14.457,37.711c9.637,9.099,23.758,13.648,42.361,13.648
		c7.951,0,14.828-1.045,20.625-3.135c5.793-2.088,11.186-5.086,16.176-8.998l-7.684-19.006c-4.988,2.83-9.639,4.987-13.953,6.469
		c-4.314,1.486-9.168,2.227-14.559,2.227c-9.301,0-16.211-1.821-20.725-5.461c-4.518-3.64-7.449-8.896-8.795-15.771l67.475-2.71
		v-5.378c0-9.562-0.266-16.883-3.498-24.629C834.351,129.697,828.005,122.176,821.267,117.592z M774.468,149.553
		c1.254-4.861,3.385-8.684,6.42-11.438c3.639-3.301,8.152-4.953,13.547-4.953c5.389,0,9.807,1.618,13.244,4.853
		c2.877,2.707,5.012,6.564,6.426,11.539H774.468z M305.499,143.541l-48.587-78.093h-27.977v145.966h27.977v-90.52l44.836,70.75
		h7.502l44.834-70.75v90.52h27.977V65.448h-27.977L305.499,143.541z M738.855,114.891c-2.979-1.031-6.127-1.546-9.445-1.546
		c-4.354,0-8.189,1.202-11.508,3.606c-3.324,2.405-6.455,5.153-8.287,8.245v-11.852H683.33v98.069h26.285v-58.392
		c0-4.007,1.5-7.474,3.391-10.393c1.891-2.92,5.008-4.379,9.361-4.379c2.289,0,4.264,0.343,5.926,1.03
		c1.615,0.668,7.063,3.99,9.434,6.665c1.111-4.938,2.734-9.569,4.904-13.835c1.855-3.65,4.076-6.958,6.611-9.95
		C746.455,119.449,742.71,116.225,738.855,114.891z M659.501,78.11c-10.045-8.43-23.152-12.662-39.328-12.662h-57.074v22.205h14.004
		v123.761h26.084V170.19h15.166c10.109,0,19.41-1.93,27.902-5.794c8.492-3.858,15.334-9.81,20.525-17.848
		c5.188-8.038,7.783-17.885,7.783-29.549C674.564,99.504,669.541,86.542,659.501,78.11z M638.976,141.73
		c-4.719,4.675-11.119,7.755-19.209,7.755h-16.58V87.653h16.178c9.029,0,15.871,2.579,20.521,7.253
		c4.65,4.676,6.977,13.72,6.977,24.429C646.324,128.689,643.695,137.057,638.976,141.73z"/>
	<path id="the" fill="#A68FF7" d="M504.98,77.034c-1.104,0-2,0.896-2,2c0,3.402-1.906,6.372-5.23,8.15
		c-3.743,2.003-8.236,1.955-11.628-0.041c2.797-4.308,4.75-8.28,5.513-9.91c2.174-4.642,6.221-13.283,3.453-20.538
		c-1.172-3.072-3.631-4.834-6.75-4.834c-2.461,0-5.297,1.133-7.584,3.03c-4.41,3.651-6.908,9.531-6.854,16.13
		c0.053,6.601,2.574,12.78,6.813,16.922c-4.067,5.554-9.697,11.194-15.107,9.806c-4.939-1.268-4.668-9.805-4.406-18.061
		c0.27-8.472,0.549-17.232-4.66-20.863c-1.266-0.882-2.715-1.092-4.186-0.607c-3.78,1.244-8.047,7.819-12.726,19.552
		c-0.051-0.418-0.239-0.816-0.543-1.135c-0.171-6.75-0.075-13.931,0.598-21.196c13.402-5.938,26.465-31.745,24.352-44.164
		c-0.826-4.857-3.975-7.643-8.635-7.643c-0.373,0-0.76,0.017-1.162,0.053c-10.339,0.912-16.512,17.381-18.356,48.937
		c-6.31,2.3-12.57,3.072-17.825,2.278c0.46-1.844,0.949-3.764,1.45-5.729c3.084-12.089,6.273-24.591,5.422-29.838
		c-0.178-1.09-1.203-1.829-2.295-1.653c-1.092,0.177-1.832,1.204-1.654,2.295c0.719,4.424-2.645,17.611-5.348,28.207
		c-0.505,1.978-0.997,3.912-1.461,5.773c-0.625-0.217-1.235-0.452-1.812-0.726c-3.908-1.852-6.568-4.91-7.906-9.088
		c-0.338-1.052-1.465-1.631-2.516-1.295c-1.051,0.337-1.631,1.463-1.295,2.515c1.666,5.2,5.125,9.171,10.004,11.483
		c0.823,0.39,1.682,0.73,2.571,1.024c-0.606,2.561-1.108,4.868-1.418,6.734l-0.17,1.011c-1.279,7.598-3.215,19.081,1.486,25.611
		c1.338,1.859,3.234,2.86,5.48,2.892c0.037,0,0.074,0.001,0.111,0.001c5.625,0,12.453-6.094,16.644-10.485
		c0.091,1.886,0.19,3.74,0.299,5.521c0.059,0.955,0.783,1.734,1.73,1.86c0.949,0.128,1.854-0.436,2.16-1.341l0.066-0.196
		c6.406-18.958,11.432-26.616,13.998-27.461c0.271-0.089,0.422-0.068,0.648,0.09c3.43,2.39,3.186,10.048,2.951,17.453
		c-0.314,9.832-0.637,19.999,7.408,22.063c0.875,0.225,1.76,0.336,2.656,0.336c5.311,0,10.966-3.921,16.565-11.506
		c2.381,1.466,5.165,2.214,8.003,2.214c2.658,0,5.357-0.648,7.801-1.955c4.598-2.459,7.344-6.825,7.344-11.677
		C506.98,77.929,506.085,77.034,504.98,77.034z M454.587,7.67c0.281-0.025,0.551-0.037,0.811-0.037c1.844,0,4.041,0.49,4.691,4.314
		c1.721,10.108-9.109,32.125-20.09,38.823C441.791,23.61,446.939,8.344,454.587,7.67z M418.714,90.119c-0.021,0-0.043,0-0.064,0
		c-0.982-0.014-1.689-0.394-2.291-1.23c-3.724-5.174-1.886-16.089-0.787-22.609l0.17-1.018c0.294-1.764,0.776-3.978,1.36-6.447
		c1.65,0.275,3.373,0.421,5.158,0.421c4.185,0,8.691-0.767,13.285-2.268c-0.575,7.233-0.616,14.335-0.421,20.984
		C431.676,82.036,423.587,90.119,418.714,90.119z M483.013,84.583c-3.152-3.391-5.072-8.404-5.113-13.596
		c-0.045-5.392,1.926-10.136,5.404-13.018c1.57-1.301,3.498-2.11,5.033-2.11c1.467,0,2.426,0.718,3.014,2.26
		c2.162,5.669-1.418,13.311-3.34,17.417C487.306,77.042,485.542,80.636,483.013,84.583z"/>
</g>
</svg>
